#!OML:ASF X:\für Bonn\!DataBase\2005_08_11_Bastian_Final\c3d\Bastian.ASF
:FULLY-SPECIFIED
:DEGREES
113
root -18.0991 14.8652 17.9666 383.34 -246.383 31.9317
lowerback 27.437 4.24292 -8.84279
upperback 9.61441 4.395 -8.17717
thorax -4.12698 2.86366 -5.4206
lowerneck 0.434311 3.09956 0.0930494
upperneck 2.31084 4.16142 -0.517217
head 0.641996 2.08324 -0.152909
rclavicle -8.26944e-014 1.74931e-013
rhumerus 66.0999 -27.7874 -24.194
rradius 40.8116
rwrist 3.98915
rhand -24.3084 1.42803
rfingers 7.12502
rthumb 2.1795 -28.5406
lclavicle -8.26944e-014 1.74931e-013
lhumerus 25.2653 13.1461 24.8886
lradius 48.1712
lwrist 50.0364
lhand -27.4959 -21.9165
lfingers 7.12502
lthumb -0.899043 8.06135
rfemur 35.0357 0.234962 24.7969
rtibia 27.7898
rfoot -10.4117 13.5425
rtoes -9.66397
lfemur -53.5767 18.3688 -13.6095
ltibia 55.6075
lfoot -21.2522 -0.127458
ltoes -14.9234
114
root -17.8927 14.8362 17.8576 384.262 -245.358 32.1077
lowerback 27.5944 4.32569 -9.29162
upperback 9.63642 4.40221 -8.376
thorax -4.17222 2.8808 -5.41384
lowerneck 0.142264 3.02336 0.0161043
upperneck 2.07042 4.05043 -0.231341
head 0.608174 2.02793 -0.0524649
rclavicle -1.59028e-014 -4.45278e-014
rhumerus 66.8725 -28.1348 -25.2746
rradius 40.2817
rwrist 4.29704
rhand -23.4448 1.85503
rfingers 7.12502
rthumb 3.01352 -28.1034
lclavicle -1.59028e-014 -4.45278e-014
lhumerus 25.9715 12.7099 24.751
lradius 47.3483
lwrist 50.6398
lhand -27.214 -21.4189
lfingers 7.12502
lthumb -0.626766 8.55993
rfemur 34.6761 -0.287339 25.1402
rtibia 27.8505
rfoot -9.12942 14.2094
rtoes -13.3697
lfemur -54.4027 18.1013 -13.792
ltibia 56.3255
lfoot -20.5634 -0.982366
ltoes -14.4847
115
root -17.6826 14.8091 17.7468 384.96 -244.28 32.0192
lowerback 27.8095 4.41707 -9.85785
upperback 9.66756 4.38791 -8.57953
thorax -4.23733 2.88893 -5.34703
lowerneck -0.250247 2.93483 -0.0361479
upperneck 1.86201 3.92493 0.0483796
head 0.60206 1.96582 0.0438801
rclavicle 1.62208e-013 -7.63333e-014
rhumerus 67.5783 -28.4632 -26.3519
rradius 39.7853
rwrist 4.65733
rhand -22.6141 2.23211
rfingers 7.12502
rthumb 3.81574 -27.7135
lclavicle 1.62208e-013 -7.63333e-014
lhumerus 26.755 12.2214 24.514
lradius 46.4989
lwrist 51.3153
lhand -27.0055 -21.0105
lfingers 7.12502
lthumb -0.425399 8.96882
rfemur 34.2773 -0.89221 25.3882
rtibia 27.8339
rfoot -7.56258 14.9071
rtoes -16.5208
lfemur -55.3469 17.7222 -14.0337
ltibia 57.1642
lfoot -19.8162 -1.86973
ltoes -14.1316
116
root -17.4657 14.785 17.6331 385.711 -243.131 31.9732
lowerback 28.0501 4.50347 -10.4738
upperback 9.69024 4.3447 -8.742
thorax -4.32879 2.8803 -5.20124
lowerneck -0.689111 2.87466 -0.0171162
upperneck 1.67927 3.83894 0.292591
head 0.614177 1.92435 0.119252
rclavicle 3.18055e-014 -3.18055e-015
rhumerus 68.3248 -28.6965 -27.3667
rradius 39.2092
rwrist 5.0062
rhand -21.9245 2.58191
rfingers 7.12502
rthumb 4.48168 -27.3507
lclavicle 3.18055e-014 -3.18055e-015
lhumerus 27.4735 11.7099 24.2267
lradius 45.6739
lwrist 51.955
lhand -26.8285 -20.4712
lfingers 7.12502
lthumb -0.254477 9.50836
rfemur 33.8372 -1.51635 25.7213
rtibia 27.7389
rfoot -5.67946 15.5538
rtoes -18.7993
lfemur -56.3902 17.3114 -14.1886
ltibia 58.1427
lfoot -19.0573 -2.81654
ltoes -13.246
117
root -17.2402 14.7618 17.5194 386.352 -241.888 31.7759
lowerback 28.2856 4.56834 -11.2366
upperback 9.7131 4.23273 -8.86393
thorax -4.42484 2.83476 -4.90628
lowerneck -1.12911 2.83949 0.0800873
upperneck 1.48976 3.78707 0.464061
head 0.627581 1.90039 0.16023
rclavicle -1.20861e-013 -9.22361e-014
rhumerus 69.1821 -28.7704 -28.3287
rradius 38.4971
rwrist 5.3066
rhand -21.4796 2.74732
rfingers 7.12502
rthumb 4.91128 -27.1758
lclavicle -1.20861e-013 -9.22361e-014
lhumerus 28.0431 11.23 23.9272
lradius 44.8703
lwrist 52.5354
lhand -26.6137 -19.9023
lfingers 7.12502
lthumb -0.0469929 10.0774
rfemur 33.3965 -2.241 26.0777
rtibia 27.5558
rfoot -3.55428 16.1992
rtoes -21.9666
lfemur -57.5485 16.7909 -14.2977
ltibia 59.2613
lfoot -18.3225 -3.79208
ltoes -11.6479
